<svg xmlns="http://www.w3.org/2000/svg" xmlns:xlink="http://www.w3.org/1999/xlink" width="430.757" height="300" viewBox="0 0 430.757 300"><defs><style>.a,.b{fill:#2b81d6;}.b,.e,.g{opacity:0.1;}.c{fill:url(#a);}.d{fill:#444176;}.f{fill:#009cf8;}.h{fill:#ced2df;}.i{fill:#88455e;}.j{fill:#ec8c9c;}.k{fill:#ebf1f6;}.l{fill:#ffca28;}.m{fill:url(#b);}.n{fill:url(#c);}.o{fill:#ffbdc6;}.p{fill:#7679b4;}.q{fill:#a66477;}.r{fill:#f2f1f2;}.s{fill:#006bde;}.t{fill:url(#d);}.u{fill:#493545;}.v{opacity:0.05;}.w{fill:#3e3d77;}.x{fill:#c77485;}.aa,.y{fill:none;stroke-miterlimit:10;}.y{stroke:#535461;stroke-width:2px;}.z{fill:#dee3f3;opacity:0.5;}.aa{stroke:#2b81d6;}.ab{fill:#a8a8a8;}.ac{opacity:0.2;}.ad{fill:#ffd037;}</style><linearGradient id="a" x1="0.5" y1="1" x2="0.5" gradientUnits="objectBoundingBox"><stop offset="0" stop-color="gray" stop-opacity="0.251"/><stop offset="0.54" stop-color="gray" stop-opacity="0.122"/><stop offset="1" stop-color="gray" stop-opacity="0.102"/></linearGradient><linearGradient id="b" x1="0.495" y1="1.014" x2="0.495" y2="0" xlink:href="#a"/><linearGradient id="c" x1="0.5" y1="1" x2="0.5" y2="0" xlink:href="#a"/><linearGradient id="d" x1="0.5" y1="1" x2="0.5" y2="0" xlink:href="#a"/></defs><g transform="translate(0.02 -0.02)"><circle class="a" cx="21.084" cy="21.084" r="21.084" transform="translate(22.048 8.873)"/><path class="b" d="M183.495,192.117c8.853,20-2.44,43.02-15.732,60.358-4.449,5.814-9.361,11.909-9.977,19.2-.744,8.921,5.3,17.12,12.463,22.481a52.476,52.476,0,0,0,46.476,7.859c13.442-4.259,24.744-13.878,38.3-17.755,22.676-6.494,46.712,4.272,66.132,17.687,13.746,9.483,28.467,21.039,45.039,19.007,11.66-1.429,21.556-9.615,28.272-19.252,3.243-4.653,6.063-9.868,10.785-13.007a27,27,0,0,1,9.4-3.565c30.109-6.435,62.064,9.27,91.773,1.193,20.068-5.442,36.068-21.315,46.018-39.578s14.594-38.884,18.463-59.315c2.748-14.512,5.029-30.19-1.288-43.537-6.685-14.132-22.159-22.7-37.71-24.3s-31.147,2.825-45.474,9.075c-17.9,7.828-35.447,18.785-54.984,18.821-13.306.027-26-5.079-38.716-8.975-21.27-6.508-43.388-9.741-65.429-12.726-21.1-2.857-42.413-5.515-63.642-3.828-15.02,1.193-28.286,6.934-42.862,9.592-9.5,1.732-19.048.454-28.372,3.356-11.483,3.592-23.293,11.914-23.927,25.02C167.908,172.4,178.8,181.51,183.495,192.117Z" transform="translate(-142.939 -119.24)"/><path class="c" d="M572.125,280.811c-1.937-5.048-6.93-16.911-10.218-14.558-4.154,2.975,4.154,16.118,4.154,16.118.236,2.413-4.435,7.433-6.939,9.936V292a1.082,1.082,0,0,1-.109.272l-.208-.113a1.363,1.363,0,0,1-.295.54,5.293,5.293,0,0,0-.023-.54c-.481,2.036-8.871,4.617-8.871,4.617H549c-2.331,0-8.4-.526-11.211-5.025a24.881,24.881,0,0,0-5.5-6.417,4.685,4.685,0,0,0-2.608-.989,33.554,33.554,0,0,1-15.315-5.27l-.231-.159-.05.145c-.295-.422-.58-.871-.848-1.333h0l-.136-.25a11.392,11.392,0,0,0,6.281-10.131v-.236a7.757,7.757,0,0,0,1.043-3.887v-1.361l1.773-1.578a7.292,7.292,0,0,0,2.064-2.476,2.935,2.935,0,0,0,.218-1.27,2.2,2.2,0,0,0-.834-1.968c-1.361-.939-3.628,0-4.612-1.306-.454-.59-.372-1.392-.594-2.086a3.733,3.733,0,0,0-3.6-2.2,15.539,15.539,0,0,0-4.408.939,25.883,25.883,0,0,1-9.388.88,6.131,6.131,0,0,0-2.571.091,3.542,3.542,0,0,0-2.086,2.426,5.7,5.7,0,0,0-.2,1.243,7.819,7.819,0,0,0-1.968,5.175v3.488a7.814,7.814,0,0,0,1.882,5.075,11.338,11.338,0,0,0,4.748,8.272v.277l.059.036a18.749,18.749,0,0,1-.5,3.206v-.231a32.778,32.778,0,0,1-13.152,3.46h-.748a5.066,5.066,0,0,0-3.628,1.361c-2.014,1.9-5.542,4.893-7.71,4.893-.454,0-11.9,2.236-13.8,2.608l-3.542-3.469-.109.2-.209-.2a8.621,8.621,0,0,0-1.152.168,27.452,27.452,0,0,1-6.281-13.855s7.832-8.921,4.952-17.234c-2.458-7.084-9.229,8.1-11.152,12.676a3.656,3.656,0,0,0-.118,2.517l6.363,20.508a9.62,9.62,0,0,0-.5,4.989h-.073l4.635,5.946a24.474,24.474,0,0,0,8.943,1.46,31.265,31.265,0,0,0,11.673-2.24h1.075l-.2.077H481.2l3.51,10.617c-.118.966-1.814,14.449-3.175,17.465a7.578,7.578,0,0,0-.535,3.175,24.236,24.236,0,0,0,1.011,6.145l3.075-.113-.118.24a160.075,160.075,0,0,0-9.524,23.737l-4.476,9.07,3.356,40.68h.136l.258.041h0c.363.054.907.136,1.624.227l-.263.454-7.4,12.245s-5.274,10.8,6.395,8.762c0,0,4.313-1.252,6.073-8.617l7.673-7.2s.358-4.78-1.814-6.689c-.136-2.209-.481-8.658.05-10.209.639-1.878-2.721-23.469-2.721-23.469s12.145-25.193,19.5-25.819a4.032,4.032,0,0,1,1.592.209c6.045,1.968,13.37,16.585,15.524,21.134h0l.1.209v.041l.082.177v.05l.073.154v.041l.063.141v.032l.054.113v.045l.041.086v.036l.027.064v.077h0l.023.054.957,28.322h0l.1.05h.045l-.082.585-.417,2.925s5.274,11.111,4.952,12.517,3.515,7.043,8.948,5.478,2.2-10.386,2.2-10.386l-5.234-10.785-.231-.481a10.288,10.288,0,0,0,1.469-1.093s-1.6-11.578,0-14.082,2.077-13.927,2.077-13.927-1.12-7.823-3.038-11.265L525.118,336.3c2.408,2.24,4.281,3.116,5.846,3.057h.259a3.905,3.905,0,0,0,1.968-.49,5.552,5.552,0,0,0,.907-.639,1.432,1.432,0,0,0,.15-.15h0c2.236-1.878-2.558-9.234-5.274-13.605-2.617-4.218.989-15.678,1.261-16.531a4.324,4.324,0,0,1,.776-.453,4.785,4.785,0,0,1,1.778-.386c2.6.091,5.8,1.587,9.769,2.34a46.085,46.085,0,0,0,8.34.648h.163c1.111,0,2.118-.023,2.934-.054a4.957,4.957,0,0,0,2.132-.576h0a6.437,6.437,0,0,0,1.515-1.225l6.957-7.859-.181.086a3.91,3.91,0,0,0,0-2.766l7.351-12.7a4.83,4.83,0,0,0,.358-4.186Z" transform="translate(-299.165 -190.129)"/><path class="d" d="M520.07,616.073l-7.406,7.1c-1.7,7.256-5.864,8.485-5.864,8.485-11.261,2-6.172-8.617-6.172-8.617l7.143-12.086.88-1.492s5.093-1.542,8.485-.617a2.9,2.9,0,0,1,1.156.626C520.42,611.316,520.07,616.073,520.07,616.073Z" transform="translate(-329.705 -386.629)"/><path class="d" d="M629.41,611.034c-5.247,1.542-8.948-4.009-8.617-5.4S616,593.306,616,593.306l.4-2.884.372-2.671,8.617.617.812,1.705,5.052,10.635S634.658,609.492,629.41,611.034Z" transform="translate(-393.381 -375.263)"/><path class="e" d="M528.369,610.649c-.812,1.392-7.392.689-10.6.254l.88-1.492s5.093-1.542,8.485-.617a2.9,2.9,0,0,1,1.156.626C528.337,610.172,528.369,610.649,528.369,610.649Z" transform="translate(-339.7 -386.601)"/><path class="e" d="M626.679,590.052c-4.413,2.939-9.111.717-9.819.349l.372-2.671,8.617.617Z" transform="translate(-393.851 -375.252)"/><path class="f" d="M567.746,486.865c-1.542,2.467,0,13.887,0,13.887-5.093,4.63-11.107,1.234-11.107,1.234l-.907-27.923s-10.027-22.989-17.125-22.372-18.821,25.456-18.821,25.456,3.238,21.288,2.621,23.129,0,10.8,0,10.8c-1.079,1.85-12.34,0-12.34,0L506.83,470.96l4.3-8.952a158.7,158.7,0,0,1,9.184-23.4c1.247-2.617,2.082-4.213,2.082-4.213l8.209-1.71,26.644-5.524,9.574,34.848c1.85,3.392,2.93,11.107,2.93,11.107S569.288,484.4,567.746,486.865Z" transform="translate(-333.721 -287.503)"/><g class="g" transform="translate(173.091 139.639)"><path d="M599.252,531.53l-.907-27.923s-10.027-22.989-17.125-22.372a3.864,3.864,0,0,0-.93.209c6.921,2.3,15.587,22.163,15.587,22.163l.907,27.923a10.883,10.883,0,0,0,6.136,1.12,10.913,10.913,0,0,1-3.669-1.12Z" transform="translate(-546.957 -456.687)"/><path d="M512.5,511.066l-3.238-40.113,4.317-8.966a158.7,158.7,0,0,1,9.184-23.4c1.247-2.617,2.082-4.213,2.082-4.213l8.209-1.71,24.322-5.057-.131-.485-26.658,5.542-8.209,1.71s-.834,1.6-2.082,4.213a158.5,158.5,0,0,0-9.184,23.4l-4.317,8.948,3.238,40.113a57.952,57.952,0,0,0,9.8.789A72.9,72.9,0,0,1,512.5,511.066Z" transform="translate(-506.79 -427.12)"/></g><path class="h" d="M468.747,338.21s-8.794.453-7.56,9.719l2.467.308,3.7-4.009,1.85-3.392v-.771Z" transform="translate(-308.713 -238.893)"/><path class="e" d="M468.747,338.21s-8.794.453-7.56,9.719l2.467.308,3.7-4.009,1.85-3.392v-.771Z" transform="translate(-308.713 -238.893)"/><path class="h" d="M693.169,345.69s7.256,3.855,5.4,8.331l-2.313.907-3.084-1.7-.454-4.009.308-2.776Z" transform="translate(-435.307 -242.98)"/><path class="e" d="M693.169,345.69s7.256,3.855,5.4,8.331l-2.313.907-3.084-1.7-.454-4.009.308-2.776Z" transform="translate(-435.307 -242.98)"/><rect class="i" width="25.302" height="19.129" rx="9.565" transform="translate(195.535 62.905)"/><path class="j" d="M461.777,300.569l-5.4,8.617-.453-1.533-7.338-23.909a3.678,3.678,0,0,1,.113-2.481c1.855-4.508,8.395-19.5,10.766-12.494,2.776,8.163-4.785,16.971-4.785,16.971a27.175,27.175,0,0,0,6.453,14.122C461.532,300.328,461.777,300.569,461.777,300.569Z" transform="translate(-301.801 -199.941)"/><path class="j" d="M691.16,316.2s8.485-8.023,8.163-11.261c0,0-8.023-12.957-4.009-15.873,3.174-2.322,8,9.379,9.864,14.354a4.852,4.852,0,0,1-.322,4.082l-10.141,17.955Z" transform="translate(-434.455 -211.872)"/><path class="j" d="M565.629,299.918s1.542,9.873-2.93,13.578,12.807,3.683,12.807,3.683l6.172-5.71s-7.1-6.635-4.939-11.569Z" transform="translate(-363.849 -217.957)"/><path class="e" d="M554.022,324.027s6.635,4.939,13.265-.617l10.8,22.372-.617,27.306s-22.372,11.569-31.628,4.476-1.542-10.8-1.542-10.8l-2.159-20.98,2.313-13.578s4.163-6.481,4.476-6.481S554.022,324.027,554.022,324.027Z" transform="translate(-352.55 -230.805)"/><path class="k" d="M554.027,323.347s6.635,4.948,13.27-.617L578.1,345.1l-.617,27.306s-22.372,11.569-31.628,4.476-1.542-10.8-1.542-10.8l-2.159-20.98,2.313-13.578s4.163-6.481,4.476-6.481S554.027,323.347,554.027,323.347Z" transform="translate(-352.556 -230.433)"/><path class="e" d="M510.623,319s-6.29,3.583-13.12,3.406a4.835,4.835,0,0,0-3.488,1.333c-1.946,1.868-5.351,4.825-7.46,4.825-.454,0-13.578,2.621-13.578,2.621l-3.469-3.469s-5.17,10.1-7.637,9.642l4.476,5.864s8.485,3.7,19.592-.771h6.481l3.392,10.49s-1.7,14.2-3.084,17.279.453,9.1.453,9.1l12.186-.454s.617-6.018,1.542-6.8-3.238-27.306-3.238-27.306-2.776-14.966,7.406-20.363Z" transform="translate(-309.151 -228.395)"/><path class="e" d="M546.846,439.38a40.281,40.281,0,0,0-.957,5.565l-9.329.354c1.247-2.617,2.082-4.213,2.082-4.213Z" transform="translate(-349.968 -294.181)"/><path class="e" d="M470.815,340.242l-5.4,8.617-.454-1.533c1.982-1.968,4.3-6.082,5.229-7.8A9.137,9.137,0,0,0,470.815,340.242Z" transform="translate(-310.84 -239.614)"/><path class="l" d="M510.235,319s-6.6,3.583-13.429,3.406a4.834,4.834,0,0,0-3.488,1.333c-1.946,1.868-5.351,4.825-7.46,4.825-.453,0-13.578,2.621-13.578,2.621l-3.483-3.474s-5.17,10.1-7.637,9.642l4.476,5.864s8.485,3.7,19.592-.771h6.481l3.392,10.485s-1.7,14.195-3.084,17.279.454,9.1.454,9.1l12.186-.454s.617-6.018,1.542-6.8-3.238-27.306-3.238-27.306-2.776-14.966,7.406-20.363Z" transform="translate(-308.763 -228.395)"/><path class="e" d="M596.067,316.94a30.021,30.021,0,0,0,14.7,5.351,4.467,4.467,0,0,1,2.517.975,24.365,24.365,0,0,1,5.311,6.349c3.392,5.556,11.723,4.939,11.723,4.939s8.1-2.544,8.562-4.535c0,0,.231,10.884,5.324,8.254l-6.7,7.719a4.725,4.725,0,0,1-3.379,1.628,49.662,49.662,0,0,1-10.581-.585c-5.555-1.079-9.565-3.7-12.494-1.388,0,0-3.855,12.032-1.233,16.354s7.256,11.569,5.093,13.424-4.785,1.7-9.1-2.776-4.785-12.032-4.785-12.032L602.1,341.18s-4.163-14.658-8.163-17.587Z" transform="translate(-381.325 -227.269)"/><path class="e" d="M645.537,338.259l-6.717,7.751a4.722,4.722,0,0,1-1.619,1.206h0a4.7,4.7,0,0,1-1.751.413,49.073,49.073,0,0,1-10.581-.585c-5.2-1.011-9.043-3.37-11.918-1.778a4.209,4.209,0,0,0-.581.385s-3.855,12.032-1.234,16.354,7.256,11.569,5.093,13.424a4.987,4.987,0,0,1-1.206.785c-1.941.875-4.349.118-7.9-3.56-4.317-4.476-4.784-12.032-4.784-12.032l1.079-19.438s-4.163-14.658-8.163-17.587l1.764-6.327a32.029,32.029,0,0,0,14.785,5.2,4.466,4.466,0,0,1,2.517.975,24.379,24.379,0,0,1,5.311,6.349c3.392,5.556,11.723,4.939,11.723,4.939a45.017,45.017,0,0,0,5.837-2.322h0a8.9,8.9,0,0,0,2.721-1.814,1.36,1.36,0,0,0,.295-.544S640.448,340.88,645.537,338.259Z" transform="translate(-382.047 -227.449)"/><path class="l" d="M644.84,338.238,638.128,346a4.722,4.722,0,0,1-1.306,1.052h0a4.707,4.707,0,0,1-2.059.567,49.075,49.075,0,0,1-10.581-.585c-5.011-.975-8.771-3.206-11.605-1.932a4.194,4.194,0,0,0-.907.54s-3.855,12.032-1.234,16.354,7.256,11.569,5.093,13.424a5.36,5.36,0,0,1-.907.63c-2,1.1-4.463.453-8.2-3.406-4.317-4.476-4.785-12.032-4.785-12.032l1.079-19.438s-4.163-14.658-8.163-17.587l1.85-6.635.222.154a32.028,32.028,0,0,0,14.785,5.2,4.467,4.467,0,0,1,2.517.975,24.379,24.379,0,0,1,5.311,6.349c3.392,5.556,11.723,4.939,11.723,4.939a45.029,45.029,0,0,0,5.837-2.322h0c1.4-.717,2.544-1.5,2.721-2.218v.39C639.652,332.288,640.332,340.555,644.84,338.238Z" transform="translate(-381.659 -227.274)"/><path class="e" d="M581.188,300.45H569.85a27.733,27.733,0,0,1,.213,5.442,11.656,11.656,0,0,0,11.982.862C580.957,304.74,580.295,302.455,581.188,300.45Z" transform="translate(-368.16 -218.257)"/><circle class="j" cx="11.261" cy="11.261" r="11.261" transform="translate(197.309 66.995)"/><path class="e" d="M569.232,268.326a12.022,12.022,0,0,1,3.751-.345c1.125.227,2.082,1,3.206,1.238,2.168.453,4.181-1.143,5.819-2.63l3.537-3.22a7.219,7.219,0,0,0,2-2.44,2.449,2.449,0,0,0-.6-2.884c-1.292-.907-3.519,0-4.454-1.288a6.725,6.725,0,0,1-.576-2.054,3.61,3.61,0,0,0-3.474-2.163,15.368,15.368,0,0,0-4.254.907,24.489,24.489,0,0,1-9.07.866,5.8,5.8,0,0,0-2.481.086,3.469,3.469,0,0,0-2.013,2.39c-.7,2.467.494,6.444,1.692,8.653S566.842,268.621,569.232,268.326Z" transform="translate(-363.003 -192.075)"/><path class="i" d="M569.232,267.646a12.023,12.023,0,0,1,3.751-.345c1.125.227,2.082,1,3.206,1.238,2.168.454,4.181-1.143,5.819-2.63l3.537-3.22a7.219,7.219,0,0,0,2-2.44,2.449,2.449,0,0,0-.6-2.884c-1.292-.907-3.519,0-4.454-1.288a6.725,6.725,0,0,1-.576-2.054,3.61,3.61,0,0,0-3.474-2.163,15.369,15.369,0,0,0-4.254.907,24.489,24.489,0,0,1-9.07.866,5.8,5.8,0,0,0-2.481.086,3.469,3.469,0,0,0-2.013,2.39c-.7,2.467.494,6.444,1.692,8.653S566.842,267.918,569.232,267.646Z" transform="translate(-363.003 -191.703)"/><path class="e" d="M536.55,394a6.358,6.358,0,0,1,3.7,1.85,6.648,6.648,0,0,0,3.392,2" transform="translate(-349.963 -269.381)"/><path class="e" d="M487.454,349.09s2.014,4.494.771,4.948-.771,3.7-.771,3.7" transform="translate(-323.084 -244.839)"/><g class="g" transform="translate(164.923 90.678)"><path d="M488.921,335.3s13.111-2.621,13.565-2.621c2.113,0,5.515-2.957,7.46-4.825a4.762,4.762,0,0,1,2.113-1.175h-.168a4.835,4.835,0,0,0-3.488,1.333c-1.946,1.868-5.351,4.825-7.46,4.825-.367,0-8.757,1.664-12.163,2.34Z" transform="translate(-488.78 -323.267)"/><path d="M557.3,319.736v-.576a32.734,32.734,0,0,1-10.05,3.215A31.056,31.056,0,0,0,557.3,319.736Z" transform="translate(-520.733 -319.16)"/><path d="M524.446,407.391s-1.85-6.018-.453-9.1,3.084-17.279,3.084-17.279l-3.383-10.49h-6.5l-.395.154h5.329l3.379,10.494s-1.7,14.195-3.084,17.279.453,9.1.453,9.1l12.186-.454V407Z" transform="translate(-504.093 -347.227)"/></g><g class="g" transform="translate(220.13 110.973)"><path d="M624.406,423.637a5.349,5.349,0,0,1-.907.63c-2,1.1-4.463.454-8.2-3.406-3.429-3.551-4.426-9.07-4.694-11.161l-.091,1.6s.453,7.56,4.785,12.032c3.742,3.873,6.209,4.508,8.2,3.406a5.346,5.346,0,0,0,.907-.63c.648-.558.685-1.605.345-2.912A1.43,1.43,0,0,1,624.406,423.637Z" transform="translate(-610.51 -388.934)"/><path d="M660.9,364.132l-4.367,5.048a4.722,4.722,0,0,1-1.306,1.052h0a4.708,4.708,0,0,1-2.059.567,49.078,49.078,0,0,1-10.58-.585c-5.011-.975-8.771-3.206-11.606-1.932a4.2,4.2,0,0,0-.907.54s-2.49,7.773-2.109,13.066a51.026,51.026,0,0,1,2.109-10.6,4.19,4.19,0,0,1,.907-.54c2.839-1.274,6.594.957,11.606,1.932a49.648,49.648,0,0,0,10.58.585,4.708,4.708,0,0,0,2.059-.567h0a4.72,4.72,0,0,0,1.306-1.039l6.716-7.751a2.644,2.644,0,0,1-2.349.222Z" transform="translate(-620.026 -363.91)"/></g><path class="m" d="M265.74,486.89a.349.349,0,0,0,.413.054A1.4,1.4,0,0,1,265.74,486.89Z" transform="translate(-201.969 -320.144)"/><path class="n" d="M235.089,293.771c-.816-.236-1.982-.621-3.383-1.111a17.741,17.741,0,0,0,3.134-6.313l-.118.045c.041-.141.082-.277.118-.422-2.689,1.093-5.664-.757-7.56-3.134s-3.175-5.324-5.252-7.51a24.037,24.037,0,0,0-2.785-2.4,3.85,3.85,0,0,0-2.018-.989c-1.211-.036-2.159,1.152-3.324,1.5a4.535,4.535,0,0,1-2.317-.086c-3.007-.689-5.9-1.964-8.966-2.3a10.508,10.508,0,0,0-4.866.549c-1.542.585-2.245,1.751-3.492,2.685-1.361,1-4.018.98-5.6,1.156a40.132,40.132,0,0,1-5.787.24,13.546,13.546,0,0,0-3.329.122c-2.3.5-4.145,2.331-5.868,4.082a3.025,3.025,0,0,0-.971,1.519,1.918,1.918,0,0,0,0,.5,3.27,3.27,0,0,0,.231,1.338,17.687,17.687,0,0,0,2.227,4.431,12.8,12.8,0,0,1,1.923,3.147,6.109,6.109,0,0,1,.295,1.814,13.189,13.189,0,0,1-.2,1.95,24.492,24.492,0,0,1-1.492,5.193,9.432,9.432,0,0,0-.871,2.721,4.34,4.34,0,0,0,0,.581c-.113,2.993,2.907,5.147,3.492,8.122a4.855,4.855,0,0,1,.086.748,5.068,5.068,0,0,1-2.68,4.39c.136.054.277.1.417.145a3.783,3.783,0,0,1-.417.227,8.453,8.453,0,0,0,.871.281,20.227,20.227,0,0,0-4.4,5.442c-5.247,9.769-40.785,28.9-40.785,28.9l.526.3-.426.277c-3.075,2.045-10.29,8.009-3.769,15.551,0,0,5.093-8.036,8.662-11.46.159-.154.317-.295.454-.426a1.043,1.043,0,0,1,.136.825l23.365-13.129s8.3-5.814,10.621-7.125a19.119,19.119,0,0,1,5.265-2.268l-.272.113a10.665,10.665,0,0,1,2.68-.381c4.136.063,8.617,3.093,10.091,15.088,1.977,16.063,1.061,18.961.426,19.356a1.169,1.169,0,0,1-.231-.041.394.394,0,0,0,.064.045,1.219,1.219,0,0,1-.254-.045.363.363,0,0,0,.345.082.322.322,0,0,0,.258-.032h0a2.711,2.711,0,0,0,.313,0,3.333,3.333,0,0,1-.032.453c-.032,0-.186.086,0,.1h0c-.05.907-.045,1.891,0,2.921-2.054.113-4.109.236-5.9.345l.159-.848.073-.381c1.578-.127,3.075-.59,3.252-1.868.385-2.812-3.474-4.313-6.757-4.5s-22.975,1.125-22.975,1.125-2.952,3.823,6.413,4.989l.866.454a104.086,104.086,0,0,1,11.029,7.837l.331.263-1.07.871c5.791,1.311,11.392,23.442,14.481,33.56s9.846,9.751,15.447,8.249c5.247-1.406,5.9-16.644,5.982-18.558v-.2l9.333,11.528.707.875q.408.213.807.4c7.066,3.361,14.871-3.084,12.653-10.431-2.245-7.406-5.728-18.358-8.05-22.989-1.946-3.878-4.458-10.317-5.982-14.349a4.853,4.853,0,0,0,.576-.277s-.036-.181-.1-.513l.1-.05s-2.268-11.664-2.367-19.955v-.721c1.687-.386,2.757-.535,2.757-.535l.032-.363-.2.041.939-10.744s3.447-7.333.807-10.385a6.413,6.413,0,0,1-1.546-3.175c-.454-2.807,0-7.492,6.145-11.383,9.46-6,13.152-10.884,13.152-10.884S240.88,295.476,235.089,293.771ZM216.3,301.227v-4.966c1.755-.086,3.546.118,5.311,0a13.431,13.431,0,0,0,2.562-.431l.426.295A46.712,46.712,0,0,1,216.3,301.227Zm-26.825,77.841c.694.481,1.392.98,2.077,1.483.426,2.449.8,4.177.83,4.3A33.948,33.948,0,0,0,189.474,379.068Z" transform="translate(-125.1 -202.15)"/><path class="o" d="M274.1,500.32l-.408,2.218-.313,1.7-.571,3.1-5.542,3.878s-.5-.426-1.324-1.1a97.137,97.137,0,0,0-10.549-7.71,11.79,11.79,0,0,0-2.9-1.338Z" transform="translate(-194.728 -327.483)"/><path class="e" d="M274.09,500.32l-.408,2.218a17.236,17.236,0,0,1-3.655-.186l-12.93.186c-.612-.036-1.184-.086-1.719-.141a11.79,11.79,0,0,0-2.9-1.338Z" transform="translate(-194.722 -327.483)"/><path class="p" d="M264.621,496.617s6.467,1.107,6.835-1.664-3.324-4.231-6.458-4.44-21.986,1.116-21.986,1.116-3.324,4.431,8.68,5.17Z" transform="translate(-189.317 -322.112)"/><path class="e" d="M274.1,500.32l-.408,2.218-.313,1.7-.571,3.1-5.542,3.878s-.5-.426-1.324-1.1a97.137,97.137,0,0,0-10.549-7.71,11.79,11.79,0,0,0-2.9-1.338Z" transform="translate(-194.728 -327.483)"/><path class="e" d="M274.09,500.32l-.408,2.218a17.236,17.236,0,0,1-3.655-.186l-12.93.186c-.612-.036-1.184-.086-1.719-.141a11.79,11.79,0,0,0-2.9-1.338Z" transform="translate(-194.722 -327.483)"/><path class="e" d="M264.621,496.617s6.467,1.107,6.835-1.664-3.324-4.231-6.458-4.44-21.986,1.116-21.986,1.116-3.324,4.431,8.68,5.17Z" transform="translate(-189.317 -322.112)"/><rect class="q" width="33.8" height="40.082" transform="translate(55.631 83.435)"/><rect class="e" width="33.8" height="40.082" transform="translate(55.631 83.435)"/><path class="o" d="M144.917,450.489a5.415,5.415,0,0,0-2.059,1.456c-3.415,3.374-8.286,11.288-8.286,11.288-6.24-7.429.667-13.3,3.628-15.32.717-.49,1.2-.753,1.2-.753Z" transform="translate(-128.906 -298.432)"/><path class="o" d="M277.728,331.09s1.664,11.637,7.388,14.408-7.388,7.941-7.388,7.941l-17.918-6.648s10.159-3.324,8.127-13.116Z" transform="translate(-198.728 -235.002)"/><path class="o" d="M230.965,485.45l-.408,2.218-.313,1.7-.571,3.1-5.542,3.878s-.5-.426-1.324-1.1a97.141,97.141,0,0,0-10.549-7.71,11.792,11.792,0,0,0-2.9-1.338Z" transform="translate(-171.158 -319.357)"/><path class="e" d="M230.96,485.45l-.408,2.218a17.239,17.239,0,0,1-3.655-.186l-12.93.186c-.612-.036-1.184-.086-1.719-.141a11.79,11.79,0,0,0-2.9-1.338Z" transform="translate(-171.153 -319.357)"/><path class="p" d="M221.446,481.754s6.467,1.107,6.834-1.664-3.324-4.249-6.467-4.431-21.982,1.107-21.982,1.107-3.324,4.431,8.68,5.17Z" transform="translate(-165.72 -313.997)"/><path class="e" d="M246.408,493.932l-.571,3.1-5.542,3.878s-.5-.426-1.324-1.1L246.3,493.8Z" transform="translate(-187.339 -323.92)"/><path class="p" d="M282.111,526.315q-.381-.186-.771-.395l-.676-.862-8.925-11.338v.2c-.059,1.882-.7,16.893-5.719,18.277-5.356,1.478-11.823,1.846-14.776-8.127s-8.313-31.769-13.855-33.061l8.218-6.744s5.442,6.349,7.664,12.463c-.082-.39-3.841-17.946-.739-21.048H279.5s4.154,11.855,7.02,17.732c2.222,4.562,5.556,15.347,7.71,22.644A8.674,8.674,0,0,1,282.111,526.315Z" transform="translate(-186.476 -314.018)"/><path class="e" d="M298.076,451.85c-4.159,2.463-22.444,1.46-28.4,1.061l-1.619-.118c-.177,0,.027-.1.027-.1l.168-1.678,4.431-11.265L296.416,426a20.541,20.541,0,0,0-.6,6.209C295.931,440.363,298.076,451.85,298.076,451.85Z" transform="translate(-203.194 -286.869)"/><path class="r" d="M297.84,450.651c-4.159,2.462-22.444,1.46-28.4,1.061l-1.619-.118h-.268l.295-.077,1.46-.385,3.138-12.562,23.737-13.76a20.541,20.541,0,0,0-.6,6.209C295.7,439.159,297.84,450.651,297.84,450.651Z" transform="translate(-202.958 -286.218)"/><path class="e" d="M295.905,430.951c-4.825,1.111-15.447,4.381-19.528,12.245-2.721,5.252-4.989,7.506-6.608,8.449l-1.619-.118.027-.1,1.46-.386,3.138-12.562,23.737-13.76A20.543,20.543,0,0,0,295.905,430.951Z" transform="translate(-203.286 -286.169)"/><path class="e" d="M146.767,447.17l5.542,3.324a5.414,5.414,0,0,0-2.059,1.456c-.454-1.361-3.365-3.229-4.68-4.027C146.287,447.433,146.767,447.17,146.767,447.17Z" transform="translate(-136.298 -298.438)"/><path class="e" d="M265.53,484.28a.331.331,0,0,1-.39-.05A1.33,1.33,0,0,0,265.53,484.28Z" transform="translate(-201.641 -318.69)"/><path class="s" d="M212.588,327.206a10.988,10.988,0,0,1-8.5-3.138s-14.776,4.249-19.764,13.855-38.975,28.444-38.975,28.444,5.9,3.324,5.356,4.989l22.349-12.93s7.941-5.728,10.159-7.02,14.408-9.234,16.993,12.376,0,19.048,0,19.048,3.7,1.293,9.07-9.07,21.982-12.744,21.982-12.744l.907-10.884s3.3-7.22.771-10.231a6.4,6.4,0,0,1-1.478-3.125c-.422-2.766,0-7.379,5.9-11.211,9.07-5.9,12.562-10.712,12.562-10.712s.186-3.51-5.356-5.17-28.077-10.712-28.077-10.712l-.739,3.138,17.732,12.562s-8.866,7.2-15.873,7.02C217.577,321.659,218.869,327.02,212.588,327.206Z" transform="translate(-136.178 -217.449)"/><path class="e" d="M287.864,336.8a36.292,36.292,0,0,1-1.02-4.535l-9.791,2.6a10.794,10.794,0,0,1-.222,5.646,10.531,10.531,0,0,0,11.034-3.719Z" transform="translate(-208.029 -235.641)"/><circle class="o" cx="10.531" cy="10.531" r="10.531" transform="translate(61.173 83.617)"/><path class="e" d="M261.036,273.888c2.921.331,5.7,1.587,8.576,2.268a4.236,4.236,0,0,0,2.218.086c1.116-.345,2.023-1.515,3.175-1.478a3.337,3.337,0,0,1,1.932.975A23.189,23.189,0,0,1,279.6,278.1c1.982,2.154,3.215,5.057,5.025,7.4s4.662,4.163,7.234,3.088c-1.746,6.8-7.478,12-13.673,12.426-2.472.168-4.989-.345-7.4.381a6.477,6.477,0,0,1-1.869.454c-1.361,0-2.485-1.265-3.347-2.494-2.014-2.893-3.628-6.177-5.9-8.812a4.82,4.82,0,0,0-2.689-1.859,4.98,4.98,0,0,0-2.975.834,14.126,14.126,0,0,0-4.354,3.02,6.038,6.038,0,0,0-1.469,5.311,12.973,12.973,0,0,1,.907,2.971c0,1.678-1.46,2.907-1.755,4.535a17.5,17.5,0,0,0-.073,2.068c-.132,2.24-1.592,4.082-3.125,5.483a3.944,3.944,0,0,0-1.429,1.982c-.118.576,0,1.188-.077,1.773-.222,1.456-1.673,2.19-2.957,2.381a8.572,8.572,0,0,1-4.435-.526,5.1,5.1,0,0,0,2.481-5.442c-.571-3-3.583-5.147-3.329-8.2a9.493,9.493,0,0,1,.834-2.7,24.691,24.691,0,0,0,1.424-5.116,8.666,8.666,0,0,0-.086-4.082,12.884,12.884,0,0,0-1.841-3.1A17.607,17.607,0,0,1,232.6,285.5a3.062,3.062,0,0,1-.2-1.442,2.989,2.989,0,0,1,.907-1.5c1.651-1.728,3.419-3.528,5.615-4.027a12.59,12.59,0,0,1,3.175-.122,37.3,37.3,0,0,0,5.537-.236c1.515-.177,4.082-.154,5.361-1.143,1.193-.907,1.868-2.064,3.342-2.644A9.783,9.783,0,0,1,261.036,273.888Z" transform="translate(-183.736 -203.691)"/><path class="e" d="M308.48,513.76s6.1,12,4.249,15.7" transform="translate(-225.326 -334.828)"/><path class="e" d="M322.006,567.9l-8.925-11.338v.2s-.517-3.664,1.184-2.431c3.723,2.694,9.683,7.111,9.81,7.873S322.868,566.026,322.006,567.9Z" transform="translate(-227.8 -356.863)"/><g class="g" transform="translate(9.358 81.49)"><path d="M302.973,348.82s.753,3.12-1.683,4.68a4.183,4.183,0,0,0,3.8-4.83,11.816,11.816,0,0,1-2.118.15Z" transform="translate(-230.755 -326.099)"/><path d="M147.8,396.236s33.986-18.839,38.975-28.445c3.578-6.893,12.2-11.025,16.78-12.812-3.342,1.12-14.59,5.415-18.816,13.551-4.989,9.605-38.975,28.444-38.975,28.444Z" transform="translate(-145.76 -329.547)"/><path d="M309.394,320.156a40.478,40.478,0,0,0,11.311-6.29L302.972,301.3l.4-1.723-1.7-.68-.739,3.138L318.672,314.6A42.791,42.791,0,0,1,309.394,320.156Z" transform="translate(-230.564 -298.9)"/><path d="M319.83,437.083a43.943,43.943,0,0,1,6.952-1.755l.032-.358A47.046,47.046,0,0,0,319.83,437.083Z" transform="translate(-240.887 -373.26)"/><path d="M254.379,441.406h-.163a.331.331,0,0,1-.39-.05,1.36,1.36,0,0,0,.39.05c.608-.354,1.519-3.111-.39-19.075-2.041-17.043-10.05-15.705-14.435-13.746,4.481-1.234,10.649-.168,12.4,14.485,1.909,15.964,1,18.726.39,19.075A4.082,4.082,0,0,0,254.379,441.406Z" transform="translate(-196.927 -358.231)"/><path d="M267.13,483.88a1.36,1.36,0,0,1-.39-.05.331.331,0,0,0,.39.05Z" transform="translate(-211.874 -399.962)"/></g><path class="q" d="M261.036,273.1c2.921.331,5.7,1.587,8.576,2.268a4.236,4.236,0,0,0,2.218.086c1.116-.345,2.023-1.515,3.175-1.478a3.337,3.337,0,0,1,1.932.975,23.173,23.173,0,0,1,2.662,2.363c1.982,2.154,3.215,5.057,5.025,7.4s4.662,4.163,7.234,3.088c-1.746,6.8-7.478,12-13.673,12.426-2.472.168-4.989-.345-7.4.381a6.476,6.476,0,0,1-1.869.454c-1.361,0-2.485-1.265-3.347-2.494-2.014-2.893-3.628-6.177-5.9-8.812a4.82,4.82,0,0,0-2.689-1.859,4.98,4.98,0,0,0-2.975.834,14.123,14.123,0,0,0-4.354,3.02,6.037,6.037,0,0,0-1.469,5.311,12.971,12.971,0,0,1,.907,2.971c0,1.678-1.46,2.907-1.755,4.535a17.5,17.5,0,0,0-.073,2.068c-.132,2.24-1.592,4.082-3.125,5.483a3.944,3.944,0,0,0-1.429,1.982c-.118.576,0,1.188-.077,1.773-.222,1.456-1.673,2.19-2.957,2.381a8.572,8.572,0,0,1-4.435-.526,5.1,5.1,0,0,0,2.481-5.442c-.571-3-3.583-5.147-3.329-8.2a9.492,9.492,0,0,1,.835-2.7,24.7,24.7,0,0,0,1.424-5.116,8.667,8.667,0,0,0-.086-4.082,12.888,12.888,0,0,0-1.841-3.1,17.605,17.605,0,0,1-2.132-4.367,3.061,3.061,0,0,1-.2-1.442,2.988,2.988,0,0,1,.907-1.5c1.651-1.728,3.419-3.528,5.615-4.027a12.587,12.587,0,0,1,3.175-.122,37.3,37.3,0,0,0,5.537-.236c1.515-.177,4.082-.154,5.361-1.143,1.193-.907,1.868-2.064,3.342-2.644A9.782,9.782,0,0,1,261.036,273.1Z" transform="translate(-183.736 -203.259)"/><path class="t" d="M842.775,206.832h0v-.168a.384.384,0,0,0-.027-.172h-.073v-.376c-.181-4.2-6-13.152-8.326-10.54-2.041,2.295,1.039,8.1,2.608,10.712l.141.236-.077-.05s-6.49,19.356-7.256,20.109-6.109,15.973-13.152,17.687c-1.392.331-2.549.63-3.519.907l.077-.259a28.046,28.046,0,0,0,1.238-4.535c.227-1.651,0-3.651-.835-4.454-.408-.4-.907-.454-1.243-1.088a5.023,5.023,0,0,1-.345-1.746l-.6-7.338.417-.127c2.521-.807,4.966-2.721,5.252-5.3a2.715,2.715,0,0,1-.268.086,4.545,4.545,0,0,0,.077-.454c-2.118.834-4.082-1.361-6.122-2.345-3.361-1.646-7.2-.1-10.671.281-3.932.431-7.664-1.2-11.683-.907-2.186.168-4.617,1.651-4.5,3.805.068,1.184.907,2.186,1.252,3.32.871,2.744-1.066,5.5-2.762,7.837A11.666,11.666,0,0,0,780,237.172c-3.9-4.082-8.127-8.8-8.617-10.571l-11.3-19.356s-.268.286-.7.707c-.068-.209-.149-.454-.24-.7-1.442-4.041-5.524-13.832-10.7-12.036s2.145,11.832,5.329,15.832l.454.553a1.433,1.433,0,0,1-.807-.036l12.6,21.61s2.29,4.136,4.39,5.261c0,0,15.651,19.732,15.841,23.678s7.039,14.472,7.039,14.472,2.29,17.1-1.719,20.109h.662q-.286.279-.585.612c-2.971,3.293-6.766,10.349-1.578,22.349,7.633,17.687,8.78,24.617,8.78,24.617s-14.513.753-17.37,1.315c-2.531.5-12.367.848-14.617.907-.8-.934-3.175-3-6.376,0-4.009,3.76-6.871,16.327-6.871,16.327s-1.528,10.15,3.628,7.515c0,0,6.109-8.458,7.823-8.834.853-.186,1.755-1.442,2.445-2.653l.036.023h0c.041,0,.209-.091.481-.2h0c1.27-.5,4.766-1.714,7.524-1.111,1.51.331,7.986.408,14.776.39-1.533,3.673-4.281,13.152-4.281,13.152s-1.147,8.839,2.662,8.476c2.721-.268,6.894-7.22,9.07-11.188,1.578-1.156,6.1-5.3,9.442-4.989l22.521-8.644s5.342-3.007,2.481-12.966c-2.268-7.918-8.721-24.127-11.27-30.444h0l-.077-.163c-.617-1.528-.989-2.435-.989-2.435h0a37.272,37.272,0,0,1-2.045-8.939c-.023-.24-.041-.485-.059-.726a4.009,4.009,0,0,0,.884-.512s-2.1-21.234,0-23.492h0l.036-.041h0v-.027h0l.036-.045h0l.082-.1h0l.1-.127h0c.113-.15.249-.336.4-.562h0a15.567,15.567,0,0,0,2.8-10.522h0q-.041-.308-.1-.621h0a12.955,12.955,0,0,0-1.306-3.682,10.242,10.242,0,0,1-.168-1.456v-1.288a4.347,4.347,0,0,1,.068-.653v-.082a.812.812,0,0,1,.041-.249v-.1a1.188,1.188,0,0,1,.054-.245v-.086c.027-.109.054-.218.091-.326v-.054q.041-.136.091-.268l.041-.1.091-.218.045-.109c.036-.082.077-.163.118-.245l.032-.068q.082-.15.172-.295l.05-.077.15-.213.073-.1.159-.19.073-.082c.082-.086.163-.172.254-.254,2.481-2.268,13.551-18.98,13.551-18.98s2.671-3.76,2.671-6.2C838.53,227.354,843.251,211.617,842.775,206.832ZM813.056,347.309c-.272-2.576-.544-5.769-.794-9.07l4.318,6.73S816.172,347.018,813.056,347.309Z" transform="translate(-464.782 -160.631)"/><path class="u" d="M777.759,525.377s-2.585-4.082-6.467-.367-6.649,16.068-6.649,16.068-1.478,9.977,3.51,7.388c0,0,5.9-8.313,7.574-8.68s3.51-4.989,3.51-4.989Z" transform="translate(-474.5 -340.123)"/><path class="u" d="M843.362,548.651s-3.51-1.664-4.617-.367-4.8,14.222-4.8,14.222-1.107,8.5,2.585,8.127,10.159-13.678,10.159-13.678Z" transform="translate(-512.398 -353.425)"/><path class="v" d="M843.362,548.651s-3.51-1.664-4.617-.367-4.8,14.222-4.8,14.222-1.107,8.5,2.585,8.127,10.159-13.678,10.159-13.678Z" transform="translate(-512.398 -353.425)"/><path class="w" d="M864.83,467.183l7.941,12.376s-.553,2.771-5.356,2.218l-16.44,10.345s-1.429,12.594,3.138,11.451c.739-.186,5.9-5.542,9.605-5.17l21.8-8.5s5.17-2.957,2.4-12.744-11.932-32.481-11.932-32.481l-14.481,8.1Z" transform="translate(-521.676 -297.077)"/><path class="v" d="M864.83,467.183l7.941,12.376s-.553,2.771-5.356,2.218l-16.44,10.345s-1.429,12.594,3.138,11.451c.739-.186,5.9-5.542,9.605-5.17l21.8-8.5s5.17-2.957,2.4-12.744-11.932-32.481-11.932-32.481l-14.481,8.1Z" transform="translate(-521.676 -297.077)"/><path class="w" d="M835.681,469.413c1.107,7.02-5.17,7.574-5.17,7.574s-28.263.553-31.587-.186-7.76,1.293-7.76,1.293c-5.728-3.51-1.107-12.19-1.107-12.19s11.823-.367,14.594-.907,16.807-1.306,16.807-1.306-1.107-6.835-8.5-24.2c-5.02-11.791-1.361-18.73,1.528-21.964a12.164,12.164,0,0,1,2.535-2.231l22.721,1.107a29.436,29.436,0,0,0,.127,3.433,36.565,36.565,0,0,0,3.016,11.338c-1.292,0-9.605,7.76-9.605,7.76S834.57,462.4,835.681,469.413Z" transform="translate(-487.538 -281.021)"/><path class="e" d="M791.72,466.659s11.823-.367,14.594-.907,16.807-1.292,16.807-1.292-1.107-6.834-8.5-24.2c-5.02-11.791-1.361-18.73,1.528-21.964a12.161,12.161,0,0,1,2.535-2.231l21.052,1.025v-.658l-22.721-1.107a12.165,12.165,0,0,0-2.535,2.231c-2.875,3.238-6.549,10.172-1.528,21.964,7.411,17.347,8.508,24.181,8.508,24.181s-14.059.739-16.807,1.293-14.594.907-14.594.907-4.617,8.685,1.107,12.209c0,0,.172-.082.454-.2C787.815,474,791.72,466.659,791.72,466.659Z" transform="translate(-487.54 -281.038)"/><rect class="u" width="11.451" height="28.998" transform="translate(326.529 66.483)"/><rect class="e" width="11.451" height="28.998" transform="translate(326.529 66.483)"/><path class="u" d="M878.545,250.522c.395.109.839.122,1.107.667a4.08,4.08,0,0,1,.268,1.361l.721,8.961a4.99,4.99,0,0,0,.336,1.714c.3.608.807.68,1.2,1.07.794.789,1.025,2.766.807,4.376a28.744,28.744,0,0,1-1.2,4.444,41.856,41.856,0,0,1-1.891,6.19c-.866,1.76-2.44,2.721-3.456,1.243s-.88-4.463-1.07-6.907c-.317-4.082-1.909-7.6-2.018-11.71-.091-3.324.8-6.426,1.361-9.578.4-2.163.422-4.789,1-6.735C876.2,247.933,877.126,250.132,878.545,250.522Z" transform="translate(-534.016 -188.294)"/><path class="e" d="M878.545,250.522c.395.109.839.122,1.107.667a4.08,4.08,0,0,1,.268,1.361l.721,8.961a4.99,4.99,0,0,0,.336,1.714c.3.608.807.68,1.2,1.07.794.789,1.025,2.766.807,4.376a28.744,28.744,0,0,1-1.2,4.444,41.856,41.856,0,0,1-1.891,6.19c-.866,1.76-2.44,2.721-3.456,1.243s-.88-4.463-1.07-6.907c-.317-4.082-1.909-7.6-2.018-11.71-.091-3.324.8-6.426,1.361-9.578.4-2.163.422-4.789,1-6.735C876.2,247.933,877.126,250.132,878.545,250.522Z" transform="translate(-534.016 -188.294)"/><path class="x" d="M762.694,211.841l-4.431,3.7s-.526-.617-1.311-1.615c-3.079-3.932-10.159-13.8-5.156-15.56s8.957,7.855,10.354,11.828C762.5,211.2,762.694,211.841,762.694,211.841Z" transform="translate(-466.642 -162.351)"/><path class="x" d="M944.148,210.682c-1.846,2.771-4.431,0-4.431,0s-.331-.494-.8-1.293c-1.519-2.571-4.5-8.272-2.526-10.531,2.268-2.58,7.887,6.227,8.059,10.358A2.458,2.458,0,0,1,944.148,210.682Z" transform="translate(-568.113 -162.485)"/><path class="x" d="M854.08,287.7s3.7,11.823,2.585,15.329,7.945,7.587,7.945,7.587h10.345s3.7-7.574,2.771-9.791-8.866-3.878-8.866-3.878-4.617,0-4.431-12.376Z" transform="translate(-523.488 -209.579)"/><path class="e" d="M771,226.351l-4.431,3.7s-.526-.617-1.311-1.615c1.61-.286,4.109-2.635,5.2-3.732C770.811,225.707,771,226.351,771,226.351Z" transform="translate(-474.949 -176.861)"/><path class="e" d="M947.979,223.708c-1.846,2.771-4.431,0-4.431,0s-.331-.494-.8-1.292l.059-.186c1.2.857,4.921.127,5.474,0a2.458,2.458,0,0,1-.3,1.479Z" transform="translate(-571.945 -175.511)"/><path class="e" d="M871.4,419.824c-5.714,2.608-24.281-2.036-25.4-2.313a12.165,12.165,0,0,1,2.535-2.231l22.721,1.107a29.491,29.491,0,0,0,.141,3.438Z" transform="translate(-519.072 -281.01)"/><path class="h" d="M807.529,264.255s-4.431,1.479-10.712-4.249c0,0-14.059-13.855-14.966-17.179l-10.884-19.048s-4.617,4.989-6.467,4.249l12.191,21.243s2.218,4.082,4.249,5.17c0,0,15.147,19.4,15.329,23.274s6.825,14.263,6.825,14.263,2.218,16.807-1.664,19.764c0,0,21.61,5.542,26.227,1.846,0,0-2.032-20.862,0-23.088,0,0,6.281-7.388,2.032-15.515,0,0-.907-4.431,1.479-6.648s13.116-18.658,13.116-18.658,2.585-3.7,2.585-6.1c0,0,4.8-16.254,4.082-20.5,0,0-4.249.907-5.542,0,0,0-6.281,19.048-7.02,19.764s-5.9,15.7-12.744,17.365-7.941,2.4-7.941,2.4,13.3,8.313,6.834,12S807.529,264.255,807.529,264.255Z" transform="translate(-474.534 -175.976)"/><path class="e" d="M865.1,291.417a35.293,35.293,0,0,1-.267-5.247l-10.345,3.138a13.951,13.951,0,0,1,.649,2.122c1.184.522,2.78,1.755,4.154,1.755A9.42,9.42,0,0,0,865.1,291.417Z" transform="translate(-523.712 -210.454)"/><circle class="x" cx="9.605" cy="9.605" r="9.605" transform="translate(325.789 62.973)"/><path class="e" d="M829.668,246.464c-2.113.163-4.472,1.624-4.354,3.742.064,1.166.862,2.15,1.211,3.265.839,2.7-1.029,5.406-2.671,7.71s-3.175,5.356-1.769,7.8a19.223,19.223,0,0,0,1.3,1.692c1.737,2.345,1.714,5.51,2.485,8.327a14.608,14.608,0,0,0,17.161,10.431,9.135,9.135,0,0,1-1.927-6.177c.1-1.615.626-3.3,0-4.794-.807-1.918-3.175-2.676-4.395-4.354s-1.138-4-.549-6,1.61-3.855,2.1-5.9a17.762,17.762,0,0,1,.454-1.764c.853-2.422,3.4-3.828,5.9-4.431s5.116-.639,7.551-1.433,4.8-2.653,5.084-5.206c-2.05.821-3.95-1.32-5.927-2.3-3.256-1.615-6.971-.1-10.327.277C837.164,247.765,833.536,246.182,829.668,246.464Z" transform="translate(-505.701 -188.684)"/><path class="u" d="M829.258,245.654c-2.113.163-4.472,1.624-4.354,3.741.064,1.166.862,2.15,1.211,3.265.839,2.7-1.029,5.406-2.671,7.71s-3.175,5.356-1.769,7.8a19.217,19.217,0,0,0,1.3,1.692c1.737,2.345,1.714,5.51,2.485,8.327a14.608,14.608,0,0,0,17.161,10.431,9.133,9.133,0,0,1-1.927-6.177c.1-1.615.626-3.3,0-4.794-.807-1.918-3.175-2.676-4.395-4.354s-1.138-4-.549-6,1.61-3.855,2.1-5.9a17.739,17.739,0,0,1,.453-1.764c.853-2.422,3.4-3.828,5.9-4.431s5.116-.639,7.551-1.433,4.8-2.653,5.084-5.206c-2.05.821-3.95-1.32-5.927-2.3-3.256-1.615-6.97-.1-10.326.277C836.763,246.951,833.149,245.35,829.258,245.654Z" transform="translate(-505.477 -188.241)"/><path class="e" d="M885.65,326.3s3.846,3.433,4.6,4.948" transform="translate(-540.74 -232.384)"/><path class="e" d="M886.414,371.51a41.362,41.362,0,0,0-7.02.553c-2.218.553-7.574,0-7.574,0" transform="translate(-533.183 -257.091)"/><g class="g" transform="translate(289.962 47.09)"><path d="M888.615,322.215a4.617,4.617,0,0,1-1.329.508,5.079,5.079,0,0,0,3.547-.508c6.467-3.7-6.835-12-6.835-12H881.78S895.082,318.523,888.615,322.215Z" transform="translate(-828.587 -270.682)"/><path d="M952.365,223.386a1.917,1.917,0,0,0-.045-.336,21.685,21.685,0,0,1-2.3.349A10.185,10.185,0,0,0,952.365,223.386Z" transform="translate(-865.879 -223.05)"/><path d="M803.647,317.724c3.877-2.957,1.664-19.764,1.664-19.764s-6.648-10.345-6.834-14.222-15.329-23.274-15.329-23.274c-2.032-1.107-4.25-5.17-4.25-5.17s-12.562-20.5-14.408-21.243l12.19,21.243s2.218,4.082,4.25,5.17c0,0,15.147,19.4,15.329,23.274s6.83,14.236,6.83,14.236,2.218,16.807-1.664,19.764c0,0,13.284,3.406,21.247,3.1C814.69,320.553,803.647,317.724,803.647,317.724Z" transform="translate(-764.49 -229.061)"/><path d="M859.024,314.021l-.109-.141a2.914,2.914,0,0,1-.385.086C858.7,313.989,858.866,314.007,859.024,314.021Z" transform="translate(-815.882 -272.687)"/></g><g class="g" transform="translate(352.946 47.068)"><path d="M929.063,223l-.113.023c-.195,5.673-4.131,19-4.131,19,0,2.4-2.585,6.1-2.585,6.1s-10.712,16.44-13.116,18.658-1.479,6.648-1.479,6.648l.023.045c-.073-1.492.109-3.8,1.637-5.22,2.4-2.218,13.116-18.658,13.116-18.658S925,245.9,925,243.5C925,243.526,929.8,227.272,929.063,223Z" transform="translate(-905.607 -223)"/><path d="M903.37,355.9c.277,1.569.091-.091.186,1.478,0,0,4.535-5.32,3.3-11.9A16.171,16.171,0,0,1,903.37,355.9Z" transform="translate(-903.37 -289.934)"/></g><ellipse class="b" cx="193.955" cy="18.63" rx="193.955" ry="18.63" transform="translate(19.091 262.76)"/><path class="y" d="M425.977,611.743s-6.6-22.426,1.238-38.93a35.42,35.42,0,0,0,2.866-22.222,59.564,59.564,0,0,0-3.147-10.431" transform="translate(-288.116 -349.255)"/><path class="a" d="M429.961,510.725c0,2.748-4.989,10.717-4.989,10.717s-4.989-7.968-4.989-10.717a4.989,4.989,0,1,1,9.95,0Z" transform="translate(-286.253 -330.242)"/><path class="a" d="M448.06,541.115c-1.492,2.308-10,6.29-10,6.29s.154-9.392,1.646-11.7a4.989,4.989,0,1,1,8.354,5.41Z" transform="translate(-296.139 -345.412)"/><path class="a" d="M445.111,596.541c-2.454,1.238-11.791.381-11.791.381s4.875-8.032,7.329-9.27a4.989,4.989,0,1,1,4.481,8.884Z" transform="translate(-293.549 -374.82)"/><path class="a" d="M435,640.85c-2.209,1.633-11.578,2.372-11.578,2.372s3.447-8.739,5.66-10.376a4.989,4.989,0,0,1,5.9,8Z" transform="translate(-288.139 -399.51)"/><path class="a" d="M412.859,555.179c1.973,1.914,11.156,3.9,11.156,3.9s-2.268-9.12-4.222-11.039a4.989,4.989,0,1,0-6.934,7.138Z" transform="translate(-281.396 -352.65)"/><path class="a" d="M400.612,605.406c2.453,1.238,11.791.381,11.791.381s-4.857-8.032-7.311-9.247a4.989,4.989,0,0,0-4.481,8.884Z" transform="translate(-274.351 -379.857)"/><path class="a" d="M396.268,656.256c2.209,1.633,11.578,2.372,11.578,2.372s-3.447-8.739-5.66-10.376a4.989,4.989,0,1,0-5.9,8Z" transform="translate(-272.002 -407.641)"/><path class="b" d="M429.961,510.725c0,2.748-4.989,10.717-4.989,10.717s-4.989-7.968-4.989-10.717a4.989,4.989,0,1,1,9.95,0Z" transform="translate(-286.253 -330.242)"/><path class="b" d="M448.06,541.115c-1.492,2.308-10,6.29-10,6.29s.154-9.392,1.646-11.7a4.989,4.989,0,1,1,8.354,5.41Z" transform="translate(-296.139 -345.412)"/><path class="b" d="M445.111,596.541c-2.454,1.238-11.791.381-11.791.381s4.875-8.032,7.329-9.27a4.989,4.989,0,1,1,4.481,8.884Z" transform="translate(-293.549 -374.82)"/><path class="b" d="M435,640.85c-2.209,1.633-11.578,2.372-11.578,2.372s3.447-8.739,5.66-10.376a4.989,4.989,0,0,1,5.9,8Z" transform="translate(-288.139 -399.51)"/><path class="b" d="M412.859,555.179c1.973,1.914,11.156,3.9,11.156,3.9s-2.268-9.12-4.222-11.039a4.989,4.989,0,1,0-6.934,7.138Z" transform="translate(-281.396 -352.65)"/><path class="b" d="M400.612,605.406c2.453,1.238,11.791.381,11.791.381s-4.857-8.032-7.311-9.247a4.989,4.989,0,0,0-4.481,8.884Z" transform="translate(-274.351 -379.857)"/><path class="b" d="M396.268,656.256c2.209,1.633,11.578,2.372,11.578,2.372s-3.447-8.739-5.66-10.376a4.989,4.989,0,1,0-5.9,8Z" transform="translate(-272.002 -407.641)"/><path class="y" d="M720.618,612.453s-6.6-22.426,1.238-38.93a35.421,35.421,0,0,0,2.866-22.222,59.565,59.565,0,0,0-3.147-10.431" transform="translate(-449.132 -349.643)"/><path class="a" d="M724.6,512.312c0,2.748-4.989,10.717-4.989,10.717s-4.989-7.968-4.989-10.717a4.989,4.989,0,0,1,9.95,0Z" transform="translate(-447.275 -331.512)"/><path class="a" d="M742.71,541.815c-1.492,2.308-10,6.29-10,6.29s.154-9.392,1.646-11.7a4.989,4.989,0,1,1,8.354,5.41Z" transform="translate(-457.161 -345.795)"/><path class="a" d="M739.791,597.23c-2.453,1.238-11.791.381-11.791.381s4.875-8.032,7.329-9.27a4.989,4.989,0,1,1,4.463,8.889Z" transform="translate(-454.587 -375.192)"/><path class="a" d="M729.638,641.55c-2.209,1.633-11.578,2.372-11.578,2.372s3.447-8.739,5.66-10.376a4.989,4.989,0,0,1,5.9,8Z" transform="translate(-449.155 -399.893)"/><path class="a" d="M707.518,555.878c1.973,1.914,11.156,3.9,11.156,3.9s-2.267-9.12-4.222-11.039a4.989,4.989,0,1,0-6.934,7.138Z" transform="translate(-442.423 -353.033)"/><path class="a" d="M695.23,606.078c2.454,1.238,11.791.381,11.791.381s-4.875-8.032-7.329-9.27a4.989,4.989,0,0,0-4.481,8.884Z" transform="translate(-435.346 -380.212)"/><path class="a" d="M691.779,657.59c2.209,1.633,11.578,2.372,11.578,2.372s-3.447-8.739-5.66-10.376a4.989,4.989,0,0,0-5.9,8Z" transform="translate(-433.885 -408.658)"/><path class="b" d="M724.6,512.312c0,2.748-4.989,10.717-4.989,10.717s-4.989-7.968-4.989-10.717a4.989,4.989,0,0,1,9.95,0Z" transform="translate(-447.275 -331.512)"/><path class="b" d="M742.71,541.815c-1.492,2.308-10,6.29-10,6.29s.154-9.392,1.646-11.7a4.989,4.989,0,1,1,8.354,5.41Z" transform="translate(-457.161 -345.795)"/><path class="b" d="M739.791,597.23c-2.453,1.238-11.791.381-11.791.381s4.875-8.032,7.329-9.27a4.989,4.989,0,1,1,4.463,8.889Z" transform="translate(-454.587 -375.192)"/><path class="b" d="M729.638,641.55c-2.209,1.633-11.578,2.372-11.578,2.372s3.447-8.739,5.66-10.376a4.989,4.989,0,0,1,5.9,8Z" transform="translate(-449.155 -399.893)"/><path class="b" d="M707.518,555.878c1.973,1.914,11.156,3.9,11.156,3.9s-2.267-9.12-4.222-11.039a4.989,4.989,0,1,0-6.934,7.138Z" transform="translate(-442.423 -353.033)"/><path class="b" d="M695.23,606.078c2.454,1.238,11.791.381,11.791.381s-4.875-8.032-7.329-9.27a4.989,4.989,0,0,0-4.481,8.884Z" transform="translate(-435.346 -380.212)"/><path class="b" d="M691.779,657.59c2.209,1.633,11.578,2.372,11.578,2.372s-3.447-8.739-5.66-10.376a4.989,4.989,0,0,0-5.9,8Z" transform="translate(-433.885 -408.658)"/><path class="z" d="M759.85,129.744H757a2,2,0,1,0,0-3.986H733.909a2,2,0,0,0,0,3.986h2.848a2,2,0,0,0,0,3.986h-3.986a2,2,0,1,0,0,3.986h23.075a2,2,0,1,0,0-3.986h4a2,2,0,0,0,0-3.986Z" transform="translate(-456.052 -122.789)"/><path class="z" d="M474.033,156.531h-2.168a1.519,1.519,0,1,0,0-3.034h-17.56a1.519,1.519,0,0,0,0,3.034h2.168a1.519,1.519,0,1,0,0,3.034h-3.034a1.519,1.519,0,1,0,0,3.034H471a1.519,1.519,0,1,0,0-3.034h3.034a1.519,1.519,0,0,0,0-3.034Z" transform="translate(-303.668 -137.949)"/><path class="aa" d="M174.262,634s7.937,15.578,1.469,24.1.59,31.746.59,31.746" transform="translate(-151.289 -400.538)"/><path class="a" d="M175.688,616.7a9.179,9.179,0,0,1-2.2,5.442,7.821,7.821,0,0,1,0-10.884A9.18,9.18,0,0,1,175.688,616.7Z" transform="translate(-150.348 -388.11)"/><path class="aa" d="M180.022,634s-7.937,15.578-1.469,24.1-.59,31.746-.59,31.746" transform="translate(-152.936 -400.538)"/><path class="a" d="M179.67,616.7a9.179,9.179,0,0,0,2.2,5.442,7.821,7.821,0,0,0,0-10.884A9.18,9.18,0,0,0,179.67,616.7Z" transform="translate(-154.933 -388.11)"/><path class="e" d="M179.67,616.7a9.179,9.179,0,0,0,2.2,5.442,7.821,7.821,0,0,0,0-10.884A9.18,9.18,0,0,0,179.67,616.7Z" transform="translate(-154.933 -388.11)"/><path class="aa" d="M190.482,634s7.937,15.578,1.469,24.1.59,31.746.59,31.746" transform="translate(-160.153 -400.538)"/><path class="a" d="M191.858,616.7a9.179,9.179,0,0,1-2.2,5.442,7.821,7.821,0,0,1,0-10.884A9.18,9.18,0,0,1,191.858,616.7Z" transform="translate(-159.185 -388.11)"/><path class="a" d="M187.981,644.222a9.162,9.162,0,0,1-5.361,2.39,7.808,7.808,0,0,1,7.542-7.832A9.259,9.259,0,0,1,187.981,644.222Z" transform="translate(-156.545 -403.15)"/><path class="a" d="M188.441,667.922a9.163,9.163,0,0,1-5.361,2.39,7.808,7.808,0,0,1,7.542-7.832A9.157,9.157,0,0,1,188.441,667.922Z" transform="translate(-156.796 -416.101)"/><path class="a" d="M163.7,684.3a9.159,9.159,0,0,1,1.9,5.551,7.811,7.811,0,0,1-7.129-8.213A9.159,9.159,0,0,1,163.7,684.3Z" transform="translate(-143.347 -426.572)"/><path class="a" d="M167.071,635.51a9.161,9.161,0,0,1,3.315,4.844,7.807,7.807,0,0,1-9.066-6.009A9.068,9.068,0,0,1,167.071,635.51Z" transform="translate(-144.905 -400.687)"/><path class="e" d="M167.071,635.51a9.161,9.161,0,0,1,3.315,4.844,7.807,7.807,0,0,1-9.066-6.009A9.068,9.068,0,0,1,167.071,635.51Z" transform="translate(-144.905 -400.687)"/><path class="aa" d="M196.222,634s-7.937,15.578-1.469,24.1-.59,31.746-.59,31.746" transform="translate(-161.789 -400.538)"/><path class="a" d="M195.87,616.7a9.179,9.179,0,0,0,2.2,5.442,7.821,7.821,0,0,0,0-10.884A9.18,9.18,0,0,0,195.87,616.7Z" transform="translate(-163.786 -388.11)"/><path class="e" d="M195.87,616.7a9.179,9.179,0,0,0,2.2,5.442,7.821,7.821,0,0,0,0-10.884A9.18,9.18,0,0,0,195.87,616.7Z" transform="translate(-163.786 -388.11)"/><path class="a" d="M194.538,648.487a9.287,9.287,0,0,0-2.268,5.442,9.151,9.151,0,0,0,5.388-2.326,9.288,9.288,0,0,0,2.268-5.442A9.151,9.151,0,0,0,194.538,648.487Z" transform="translate(-161.819 -407.183)"/><path class="e" d="M194.538,648.487a9.287,9.287,0,0,0-2.268,5.442,9.151,9.151,0,0,0,5.388-2.326,9.288,9.288,0,0,0,2.268-5.442A9.151,9.151,0,0,0,194.538,648.487Z" transform="translate(-161.819 -407.183)"/><path class="a" d="M203.648,681.3a9.288,9.288,0,0,0-2.268,5.442,9.151,9.151,0,0,0,5.388-2.327,9.287,9.287,0,0,0,2.268-5.442A9.121,9.121,0,0,0,203.648,681.3Z" transform="translate(-166.797 -425.113)"/><path class="aa" d="M193,667.6s4.776-7.528,11.483-7.71" transform="translate(-162.218 -414.686)"/><path class="aa" d="M170.933,657.57s-4.776-7.528-11.483-7.71" transform="translate(-143.883 -409.205)"/><path class="aa" d="M183.4,681.27s4.776-7.528,11.483-7.71" transform="translate(-156.971 -422.157)"/><circle class="a" cx="1.238" cy="1.238" r="1.238" transform="translate(40.796 243.925)"/><circle class="a" cx="1.238" cy="1.238" r="1.238" transform="translate(14.447 239.481)"/><path class="aa" d="M177.313,686.71s-4.775-7.528-11.483-7.71" transform="translate(-147.37 -425.129)"/><circle class="a" cx="1.238" cy="1.238" r="1.238" transform="translate(17.34 252.705)"/><circle class="a" cx="1.238" cy="1.238" r="1.238" transform="translate(36.764 250.229)"/><path class="ab" d="M194.917,723.523s-11.51-2.3-14.585-5.374-16.88-8.44-18.417-4.6-20.721,16.884-7.673,19.188,30.7,3.07,34.535,1.533S194.917,723.523,194.917,723.523Z" transform="translate(-138.565 -443.28)"/><path class="ac" d="M154.248,744.834c13.048,2.3,30.7,3.07,34.535,1.533,2.921-1.17,4.952-6.8,5.755-9.4l.385.082s-2.3,9.211-6.141,10.744-21.488.766-34.535-1.533c-3.764-.667-4.844-2.227-4.435-4.2C150.13,743.333,151.445,744.34,154.248,744.834Z" transform="translate(-138.572 -456.809)"/><path class="a" d="M1007.331,641.78s3.8,4.989-1.755,12.472-10.136,13.837-8.281,18.517c0,0,8.381-13.937,15.2-14.132S1014.837,650.157,1007.331,641.78Z" transform="translate(-601.524 -404.789)"/><path class="e" d="M1007.59,641.78a6.151,6.151,0,0,1,.776,1.56c6.658,7.818,10.2,15.116,3.8,15.3-5.959.172-13.106,10.825-14.821,13.519a5.764,5.764,0,0,0,.2.612s8.381-13.937,15.2-14.132S1015.1,650.157,1007.59,641.78Z" transform="translate(-601.783 -404.789)"/><path class="ad" d="M1034.417,654.4c0,1.751-.2,3.175-.454,3.175s-.453-1.42-.453-3.175.245-.907.485-.907S1034.417,652.654,1034.417,654.4Z" transform="translate(-621.544 -411.078)"/><path class="ad" d="M1037.25,658.907c-1.537.839-2.875,1.361-2.989,1.129s1.034-1.066,2.572-1.9.93-.227,1.048,0S1038.782,658.068,1037.25,658.907Z" transform="translate(-621.95 -413.494)"/><path class="a" d="M965.392,641.78s-3.8,4.989,1.755,12.472,10.136,13.837,8.281,18.517c0,0-8.381-13.937-15.2-14.132S957.886,650.157,965.392,641.78Z" transform="translate(-579.657 -404.789)"/><path class="e" d="M965.392,641.78a6.154,6.154,0,0,0-.775,1.56c-6.658,7.818-10.2,15.116-3.805,15.3,5.959.172,13.107,10.825,14.821,13.519a5.751,5.751,0,0,1-.2.612s-8.381-13.937-15.2-14.132S957.886,650.157,965.392,641.78Z" transform="translate(-579.657 -404.789)"/><path class="ad" d="M960.09,654.4c0,1.751.195,3.175.453,3.175s.453-1.42.453-3.175-.245-.907-.485-.907S960.09,652.654,960.09,654.4Z" transform="translate(-581.421 -411.078)"/><path class="ad" d="M953.61,658.907c1.537.839,2.875,1.361,2.989,1.129s-1.034-1.066-2.571-1.9-.93-.227-1.048,0S952.073,658.068,953.61,658.907Z" transform="translate(-577.367 -413.494)"/><path class="ab" d="M962.76,701.754s10.626-.327,13.828-2.608,16.327-4.989,17.138-1.361,15.968,18.191,3.973,18.286-27.873-1.868-31.07-3.814S962.76,701.754,962.76,701.754Z" transform="translate(-582.88 -434.427)"/><path class="ac" d="M997.912,721.72c-12,.1-27.873-1.869-31.07-3.814-2.435-1.483-3.406-6.8-3.728-9.256h-.354s.671,8.571,3.868,10.517,19.075,3.914,31.07,3.814c3.465-.027,4.658-1.261,4.594-3.084C1001.812,721.008,1000.511,721.7,997.912,721.72Z" transform="translate(-582.88 -441.333)"/><path class="z" d="M268.041,189.074h-2.848a2,2,0,1,0,0-3.986H242.119a2,2,0,0,0,0,3.986h2.848a2,2,0,0,0,0,3.986H240.98a2,2,0,0,0,0,3.986h23.075a2,2,0,1,0,0-3.986h3.986a2,2,0,0,0,0-3.986Z" transform="translate(-187.4 -155.212)"/></g></svg>